<svg width="30" height="25" viewBox="0 0 30 25" fill="none" xmlns="http://www.w3.org/2000/svg">
<path d="M30.0001 3.3422C28.9149 3.82452 27.746 4.14934 26.5205 4.29699C27.7731 3.54645 28.7303 2.36035 29.1856 0.945401C28.0142 1.63934 26.7174 2.1438 25.3369 2.41449C24.2345 1.23577 22.6571 0.5 20.9173 0.5C17.0047 0.5 14.1305 4.14934 15.0139 7.93894C9.98162 7.68548 5.51531 5.27392 2.52792 1.60981C0.940712 4.33144 1.70602 7.89465 4.40303 9.6984C3.41134 9.66641 2.4787 9.39326 1.66172 8.94048C1.59528 11.7458 3.6082 14.3714 6.52176 14.9571C5.67033 15.1884 4.73524 15.2425 3.78538 15.0604C4.5556 17.4671 6.79737 19.2167 9.44517 19.2659C6.89334 21.2641 3.68694 22.1573 0.470703 21.7784C3.15296 23.4985 6.33475 24.5 9.75523 24.5C21.0059 24.5 27.3597 14.9989 26.9758 6.47724C28.1619 5.62581 29.188 4.55783 30.0001 3.3422Z" fill="white"/>
</svg>
